<?xml version="1.0" encoding="UTF-8" standalone="no"?><!DOCTYPE svg PUBLIC "-//W3C//DTD SVG 1.1//EN" "http://www.w3.org/Graphics/SVG/1.1/DTD/svg11.dtd"><svg width="100%" height="100%" viewBox="0 0 16 16" version="1.1" xmlns="http://www.w3.org/2000/svg" xmlns:xlink="http://www.w3.org/1999/xlink" xml:space="preserve" xmlns:serif="http://www.serif.com/" style="fill-rule:evenodd;clip-rule:evenodd;stroke-linejoin:round;stroke-miterlimit:2;"><g><path d="M8.335,15.581c2.696,-0 5.002,-1.286 6.29,-3.322l-1.767,-1.108c-0.929,1.528 -2.576,2.487 -4.523,2.487c-2.996,-0 -5.182,-2.367 -5.182,-5.633c-0,-3.267 2.186,-5.634 5.182,-5.634c1.947,0 3.594,0.959 4.523,2.487l1.767,-1.108c-1.288,-2.036 -3.594,-3.322 -6.29,-3.322c-4.134,0 -7.335,3.262 -7.335,7.577c-0,4.314 3.201,7.576 7.335,7.576Z" style="fill:#fff;fill-rule:nonzero;"/><path d="M2.448,7.505c-0.138,-0 -0.25,0.112 -0.25,0.25l0,0.5c0,0.137 0.112,0.25 0.25,0.25l4.293,-0c0.138,-0 0.25,-0.113 0.25,-0.25l-0,-0.5c-0,-0.138 -0.112,-0.25 -0.25,-0.25l-4.293,-0Z" style="fill:#fff;"/><path d="M4.885,12.726c-0.069,0.12 -0.028,0.273 0.092,0.342l0.433,0.25c0.119,0.069 0.273,0.028 0.341,-0.092l2.147,-3.717c0.069,-0.12 0.028,-0.273 -0.092,-0.342l-0.433,-0.25c-0.119,-0.069 -0.272,-0.028 -0.341,0.092l-2.147,3.717Z" style="fill:#fff;"/><path d="M10.626,13.226c0.069,0.12 0.222,0.161 0.342,0.092l0.433,-0.25c0.119,-0.069 0.16,-0.222 0.091,-0.342l-2.146,-3.717c-0.069,-0.12 -0.222,-0.161 -0.342,-0.092l-0.433,0.25c-0.119,0.069 -0.16,0.222 -0.091,0.342l2.146,3.717Z" style="fill:#fff;"/><path d="M13.929,8.505c0.138,-0 0.25,-0.113 0.25,-0.25l0,-0.5c0,-0.138 -0.112,-0.25 -0.25,-0.25l-4.292,-0c-0.138,-0 -0.25,0.112 -0.25,0.25l-0,0.5c-0,0.137 0.112,0.25 0.25,0.25l4.292,-0Z" style="fill:#fff;"/><path d="M11.492,3.283c0.069,-0.12 0.028,-0.273 -0.091,-0.342l-0.433,-0.25c-0.12,-0.069 -0.273,-0.028 -0.342,0.092l-2.146,3.717c-0.069,0.12 -0.028,0.273 0.091,0.342l0.433,0.25c0.12,0.069 0.273,0.028 0.342,-0.092l2.146,-3.717Z" style="fill:#fff;"/><path d="M5.751,2.783c-0.068,-0.12 -0.222,-0.161 -0.341,-0.092l-0.433,0.25c-0.12,0.069 -0.161,0.222 -0.092,0.342l2.147,3.717c0.069,0.12 0.222,0.161 0.341,0.092l0.433,-0.25c0.12,-0.069 0.161,-0.222 0.092,-0.342l-2.147,-3.717Z" style="fill:#fff;"/></g></svg>