<?xml version="1.0" encoding="UTF-8" standalone="no"?><!DOCTYPE svg PUBLIC "-//W3C//DTD SVG 1.1//EN" "http://www.w3.org/Graphics/SVG/1.1/DTD/svg11.dtd"><svg width="100%" height="100%" viewBox="0 0 2457 1489" version="1.1" xmlns="http://www.w3.org/2000/svg" xmlns:xlink="http://www.w3.org/1999/xlink" xml:space="preserve" xmlns:serif="http://www.serif.com/" style="fill-rule:evenodd;clip-rule:evenodd;stroke-linejoin:round;stroke-miterlimit:2;"><path d="M358.891,1240.56c50.833,-0 89.166,-33.282 105,-89.544l-30.417,-9.586c-11.25,45.01 -40.417,70.015 -74.583,70.015c-43.75,0 -77.917,-44.593 -77.917,-121.276c-0,-76.683 34.167,-121.276 77.917,-121.276c34.166,0 63.333,25.006 74.583,70.015l30.417,-9.585c-15.834,-56.262 -54.167,-89.544 -105,-89.544c-58.75,-0 -110.365,53.703 -110.365,150.39c0,96.688 51.615,150.391 110.365,150.391Z" style="fill:#0499c5;fill-rule:nonzero;"/><path d="M520.193,1235.98l145.364,0l0,-24.947l-59.166,-0l-0,-110.037c12.083,-28.76 36.666,-45.016 66.666,-45.016c12.084,0 24.584,2.918 38.334,7.503l-0,-27.879c-13.75,-4.575 -22.084,-6.238 -35,-6.238c-32.5,-0 -57.917,17.882 -70,48.705l-0,-45.372l-86.198,0l-0,24.948l55.833,0l0,153.386l-55.833,-0l-0,24.947Z" style="fill:#0499c5;fill-rule:nonzero;"/><path d="M785.185,1327.23c32.908,0 49.57,-12.061 63.733,-44.947l107.056,-249.584l-32.909,0l-69.148,168.334l-66.65,-168.334l-33.324,0l82.478,204.584l-15.412,35.833c-7.915,18.75 -20.412,25.833 -39.157,25.833c-6.665,0 -14.579,-1.25 -24.993,-3.75l-0,28.698c9.164,2.502 19.578,3.333 28.326,3.333Z" style="fill:#0499c5;fill-rule:nonzero;"/><path d="M1106.42,1240.14c55.854,0 98.724,-45.371 98.724,-105.391c-0,-60.02 -42.87,-105.39 -98.724,-105.39c-55.855,-0 -98.724,45.37 -98.724,105.39c-0,60.02 42.869,105.391 98.724,105.391Zm-0,-27.031c-39.599,-0 -68.776,-32.928 -68.776,-78.36c-0,-45.432 29.177,-78.359 68.776,-78.359c39.598,0 68.776,32.927 68.776,78.359c-0,45.432 -29.178,78.36 -68.776,78.36Z" style="fill:#0499c5;fill-rule:nonzero;"/><path d="M1354.33,1240.14c49.189,0 86.224,-27.452 86.224,-62.961c0,-84.612 -142.5,-35.084 -142.5,-90.018c0,-19.545 20.426,-32.021 51.274,-32.021c24.177,0 47.938,5.406 70.847,21.624l14.972,-22.04c-27.459,-18.712 -54.138,-25.365 -84.569,-25.365c-47.105,-0 -80.388,24.534 -80.388,59.881c-0,83.762 141.666,33.272 141.666,89.61c0,20.47 -24.594,35.509 -58.36,35.509c-24.177,-0 -46.688,-6.266 -72.493,-25.483l-16.23,21.305c21.221,20.811 53.29,29.959 89.557,29.959Z" style="fill:#0499c5;fill-rule:nonzero;"/><path d="M1639.72,1240.14c17.5,0 35.417,-3.743 53.75,-10.397l-0,-27.471c-20.417,7.919 -37.5,10.837 -53.333,10.837c-26.25,-0 -40.417,-10.42 -40.417,-35.845l-0,-119.624l93.75,0l-0,-24.948l-93.75,0l-0,-62.916l-30.365,7.083l0,55.833l-69.583,0l0,24.948l69.583,0l0,124.625c0,37.914 24.542,57.875 70.365,57.875Z" style="fill:#0499c5;fill-rule:nonzero;"/><path d="M1838.08,1240.14c25.845,0 47.938,-8.73 66.697,-27.451l0,23.284l29.948,0l-0,-130.791c-0,-48.791 -29.116,-75.823 -80.805,-75.823c-26.262,-0 -52.524,6.237 -81.661,22.038l12.478,22.926c25.413,-14.596 45.006,-19.6 65.432,-19.6c35.849,0 54.608,18.349 54.608,54.629l0,23.304c-18.759,-10.808 -40.018,-15.38 -64.196,-15.38c-47.105,-0 -78.304,24.114 -78.304,60.781c0,36.717 31.199,62.083 75.803,62.083Zm-46.688,-62.891c-0,-22.932 21.259,-37.942 53.774,-37.942c23.344,-0 42.103,4.169 59.611,14.593l0,39.193c-17.091,16.678 -36.684,23.766 -60.444,23.766c-31.682,-0 -52.941,-15.844 -52.941,-39.61Z" style="fill:#0499c5;fill-rule:nonzero;"/><path d="M2139.72,1240.14c17.5,0 35.417,-3.743 53.75,-10.397l-0,-27.471c-20.417,7.919 -37.5,10.837 -53.333,10.837c-26.25,-0 -40.417,-10.42 -40.417,-35.845l-0,-119.624l93.75,0l-0,-24.948l-93.75,0l-0,-62.916l-30.365,7.083l0,55.833l-69.583,0l0,24.948l69.583,0l0,124.625c0,37.914 24.542,57.875 70.365,57.875Z" style="fill:#0499c5;fill-rule:nonzero;"/><g><path d="M1226.89,815c107.835,0 200.094,-51.422 251.616,-132.865l-70.692,-44.348c-37.144,61.128 -103.043,99.482 -180.924,99.482c-119.817,-0 -207.283,-94.687 -207.283,-225.332c-0,-130.644 87.466,-225.329 207.283,-225.329c77.881,-0 143.78,38.352 180.924,99.479l70.692,-44.347c-51.522,-81.441 -143.781,-132.864 -251.616,-132.864c-165.347,0 -293.402,130.467 -293.402,303.061c0,172.595 128.055,303.063 293.402,303.063Z" style="fill:#0499c5;fill-rule:nonzero;"/><path d="M991.419,491.938c-5.52,-0 -10.001,4.481 -10.001,10l0,20c0,5.52 4.481,10.001 10.001,10.001l171.706,-0c5.519,-0 10,-4.481 10,-10.001l0,-20c0,-5.519 -4.481,-10 -10,-10l-171.706,-0Z" style="fill:#0499c5;"/><path d="M1088.91,700.806c-2.759,4.78 -1.119,10.901 3.661,13.661l17.321,10c4.779,2.76 10.901,1.12 13.66,-3.66l85.853,-148.702c2.76,-4.78 1.12,-10.901 -3.66,-13.661l-17.321,-10c-4.78,-2.76 -10.901,-1.12 -13.66,3.66l-85.854,148.702Z" style="fill:#0499c5;"/><path d="M1318.55,720.807c2.759,4.78 8.881,6.42 13.66,3.66l17.321,-10c4.78,-2.76 6.42,-8.881 3.661,-13.661l-85.854,-148.702c-2.759,-4.78 -8.88,-6.42 -13.66,-3.66l-17.321,10c-4.78,2.76 -6.42,8.881 -3.66,13.661l85.853,148.702Z" style="fill:#0499c5;"/><path d="M1450.68,531.939c5.52,-0 10.001,-4.481 10.001,-10.001l-0,-20c-0,-5.519 -4.481,-10 -10.001,-10l-171.706,-0c-5.519,-0 -10,4.481 -10,10l-0,20c-0,5.52 4.481,10.001 10,10.001l171.706,-0Z" style="fill:#0499c5;"/><path d="M1353.19,323.07c2.759,-4.78 1.119,-10.901 -3.661,-13.661l-17.321,-10c-4.779,-2.76 -10.901,-1.119 -13.66,3.66l-85.853,148.703c-2.76,4.779 -1.12,10.901 3.66,13.66l17.321,10.001c4.78,2.759 10.901,1.119 13.66,-3.661l85.854,-148.702Z" style="fill:#0499c5;"/><path d="M1123.56,303.069c-2.759,-4.779 -8.881,-6.42 -13.66,-3.66l-17.321,10c-4.78,2.76 -6.42,8.881 -3.661,13.661l85.854,148.702c2.759,4.78 8.88,6.42 13.66,3.661l17.321,-10.001c4.78,-2.759 6.42,-8.881 3.66,-13.66l-85.853,-148.703Z" style="fill:#0499c5;"/></g></svg>