<?xml version="1.0" encoding="UTF-8" standalone="no"?><!DOCTYPE svg PUBLIC "-//W3C//DTD SVG 1.1//EN" "http://www.w3.org/Graphics/SVG/1.1/DTD/svg11.dtd"><svg width="100%" height="100%" viewBox="0 0 2342 584" version="1.1" xmlns="http://www.w3.org/2000/svg" xmlns:xlink="http://www.w3.org/1999/xlink" xml:space="preserve" xmlns:serif="http://www.serif.com/" style="fill-rule:evenodd;clip-rule:evenodd;stroke-linejoin:round;stroke-miterlimit:2;"><rect id="Artboard1" x="0" y="0" width="2342" height="584" style="fill:none;"/><path d="M726.66,427.14c43.513,0 76.326,-28.489 89.879,-76.649l-26.036,-8.205c-9.63,38.528 -34.597,59.932 -63.843,59.932c-37.45,0 -66.696,-38.171 -66.696,-103.811c-0,-65.64 29.246,-103.812 66.696,-103.812c29.246,0 54.213,21.405 63.843,59.933l26.036,-8.205c-13.553,-48.16 -46.366,-76.65 -89.879,-76.65c-50.29,0 -94.472,45.97 -94.472,128.734c0,82.764 44.182,128.733 94.472,128.733Z" style="fill:#0499c5;fill-rule:nonzero;"/><path d="M864.733,423.217l124.432,0l-0,-21.355l-50.647,-0l0,-94.191c10.344,-24.618 31.387,-38.533 57.067,-38.533c10.343,0 21.043,2.498 32.813,6.422l-0,-23.864c-11.77,-3.916 -18.903,-5.34 -29.96,-5.34c-27.82,0 -49.576,15.307 -59.92,41.692l0,-38.838l-73.785,-0l0,21.355l47.793,-0l0,131.297l-47.793,-0l0,21.355Z" style="fill:#0499c5;fill-rule:nonzero;"/><path d="M1091.57,501.327c28.169,-0 42.432,-10.325 54.555,-38.476l91.64,-213.641l-28.17,-0l-59.191,144.092l-57.051,-144.092l-28.526,-0l70.601,175.122l-13.193,30.673c-6.775,16.05 -17.472,22.113 -33.518,22.113c-5.705,-0 -12.48,-1.07 -21.394,-3.21l0,24.565c7.845,2.142 16.759,2.854 24.247,2.854Z" style="fill:#0499c5;fill-rule:nonzero;"/><path d="M1366.54,426.784c47.811,-0 84.507,-38.837 84.507,-90.214c-0,-51.377 -36.696,-90.214 -84.507,-90.214c-47.811,0 -84.507,38.837 -84.507,90.214c-0,51.377 36.696,90.214 84.507,90.214Zm-0,-23.139c-33.896,0 -58.872,-28.186 -58.872,-67.075c-0,-38.89 24.976,-67.075 58.872,-67.075c33.896,-0 58.872,28.185 58.872,67.075c-0,38.889 -24.976,67.075 -58.872,67.075Z" style="fill:#0499c5;fill-rule:nonzero;"/><path d="M1578.75,426.784c42.105,-0 73.807,-23.499 73.807,-53.894c-0,-72.428 -121.979,-30.032 -121.979,-77.056c-0,-16.73 17.484,-27.409 43.89,-27.409c20.696,-0 41.035,4.627 60.644,18.51l12.817,-18.866c-23.506,-16.018 -46.342,-21.713 -72.391,-21.713c-40.321,0 -68.812,21.001 -68.812,51.258c-0,71.7 121.266,28.481 121.266,76.706c-0,17.522 -21.053,30.395 -49.956,30.395c-20.696,0 -39.965,-5.364 -62.054,-21.813l-13.893,18.237c18.165,17.814 45.617,25.645 76.661,25.645Z" style="fill:#0499c5;fill-rule:nonzero;"/><path d="M1823.05,426.784c14.98,-0 30.317,-3.204 46.01,-8.9l0,-23.515c-17.476,6.779 -32.1,9.276 -45.653,9.276c-22.47,0 -34.596,-8.919 -34.596,-30.683l-0,-102.397l80.249,-0l0,-21.355l-80.249,-0l-0,-53.857l-25.992,6.064l-0,47.793l-59.563,-0l-0,21.355l59.563,-0l-0,106.678c-0,32.454 21.007,49.541 60.231,49.541Z" style="fill:#0499c5;fill-rule:nonzero;"/><path d="M1992.84,426.784c22.123,-0 41.035,-7.474 57.092,-23.498l0,19.931l25.636,0l-0,-111.957c-0,-41.764 -24.923,-64.904 -69.169,-64.904c-22.48,0 -44.96,5.339 -69.901,18.865l10.681,19.624c21.753,-12.494 38.524,-16.777 56.009,-16.777c30.687,0 46.744,15.706 46.744,46.762l0,19.948c-16.057,-9.251 -34.255,-13.166 -54.951,-13.166c-40.322,0 -67.028,20.642 -67.028,52.029c0,31.43 26.706,53.143 64.887,53.143Zm-39.965,-53.835c0,-19.629 18.198,-32.478 46.031,-32.478c19.982,0 36.039,3.569 51.026,12.492l0,33.549c-14.63,14.276 -31.401,20.343 -51.74,20.343c-27.119,0 -45.317,-13.562 -45.317,-33.906Z" style="fill:#0499c5;fill-rule:nonzero;"/><path d="M2251.04,426.784c14.98,-0 30.317,-3.204 46.01,-8.9l0,-23.515c-17.476,6.779 -32.1,9.276 -45.653,9.276c-22.47,0 -34.596,-8.919 -34.596,-30.683l-0,-102.397l80.249,-0l0,-21.355l-80.249,-0l-0,-53.857l-25.992,6.064l-0,47.793l-59.563,-0l-0,21.355l59.563,-0l-0,106.678c-0,32.454 21.007,49.541 60.231,49.541Z" style="fill:#0499c5;fill-rule:nonzero;"/><g><path d="M315.15,554.919c92.306,0 171.279,-44.017 215.381,-113.732l-60.512,-37.961c-31.794,52.325 -88.203,85.156 -154.869,85.156c-102.563,-0 -177.433,-81.052 -177.433,-192.883c-0,-111.83 74.87,-192.881 177.433,-192.881c66.666,0 123.075,32.83 154.869,85.155l60.512,-37.961c-44.102,-69.714 -123.075,-113.731 -215.381,-113.731c-141.536,-0 -251.15,111.679 -251.15,259.418c-0,147.74 109.614,259.42 251.15,259.42Z" style="fill:#0499c5;fill-rule:nonzero;"/><path d="M113.585,278.38c-4.724,-0 -8.56,3.835 -8.56,8.56l0,17.12c0,4.725 3.836,8.56 8.56,8.56l146.98,0c4.724,0 8.56,-3.835 8.56,-8.56l0,-17.12c0,-4.725 -3.836,-8.56 -8.56,-8.56l-146.98,-0Z" style="fill:#0499c5;"/><path d="M197.041,457.17c-2.362,4.092 -0.958,9.331 3.133,11.693l14.827,8.561c4.091,2.362 9.331,0.958 11.693,-3.134l73.49,-127.288c2.362,-4.091 0.958,-9.331 -3.133,-11.693l-14.827,-8.56c-4.091,-2.363 -9.331,-0.959 -11.693,3.133l-73.49,127.288Z" style="fill:#0499c5;"/><path d="M393.606,474.29c2.362,4.092 7.602,5.496 11.693,3.134l14.827,-8.561c4.091,-2.362 5.495,-7.601 3.133,-11.693l-73.49,-127.288c-2.362,-4.092 -7.602,-5.496 -11.693,-3.133l-14.827,8.56c-4.091,2.362 -5.495,7.602 -3.133,11.693l73.49,127.288Z" style="fill:#0499c5;"/><path d="M506.715,312.62c4.724,0 8.56,-3.835 8.56,-8.56l0,-17.12c0,-4.725 -3.836,-8.56 -8.56,-8.56l-146.98,-0c-4.724,-0 -8.56,3.835 -8.56,8.56l0,17.12c0,4.725 3.836,8.56 8.56,8.56l146.98,0Z" style="fill:#0499c5;"/><path d="M423.259,133.83c2.362,-4.092 0.958,-9.331 -3.133,-11.693l-14.827,-8.561c-4.091,-2.362 -9.331,-0.958 -11.693,3.134l-73.49,127.288c-2.362,4.091 -0.958,9.331 3.133,11.693l14.827,8.56c4.091,2.363 9.331,0.959 11.693,-3.133l73.49,-127.288Z" style="fill:#0499c5;"/><path d="M226.694,116.71c-2.362,-4.092 -7.602,-5.496 -11.693,-3.134l-14.827,8.561c-4.091,2.362 -5.495,7.601 -3.133,11.693l73.49,127.288c2.362,4.092 7.602,5.496 11.693,3.133l14.827,-8.56c4.091,-2.362 5.495,-7.602 3.133,-11.693l-73.49,-127.288Z" style="fill:#0499c5;"/></g></svg>